# xmcd
#
# Track frame offsets: 
#        150
#        11962
#        27845
#        37930
#        50387
#        65125
#        80582
#        100100
#        125817
#        140797
#        168492
#        187697
#        214940
#        242230
#        260497
#        281765
#        302290
#        315822
#
# Disc length: 4383 seconds
#
# Revision: 9
# Processed by: cddbd v1.5.2PL0 Copyright (c) Steve Scherf et al.
# Submitted via: ExactAudioCopy v0.95b3
#
DISCID=fd111d12
DTITLE=Deep Purple - Listen, Learn, Read On - CD 1
DYEAR=2008
DGENRE=Rock
TTITLE0=The Outlaws - Keep A Knockin' (1964)
TTITLE1=M.I.5 - You'll Never Stop Me Loving You (1966)
TTITLE2=M.I.5 - Only Time Will Tell (1966)
TTITLE3=Johnny Kidd and The Pirates - Send For That Girl (1966)
TTITLE4=Santa Barbara Machine Head - Porcupine Juice (1967)
TTITLE5=Episode Six - I Can See Through You (1967)
TTITLE6=Episode Six - Mr. Universe (1968)
TTITLE7=Trapeze - Medusa (1970)
TTITLE8=The Government - Does Anybody Really Know What Time It Is (197
TTITLE8=1)
TTITLE9=Zephyr - See My People Come Together (1971)
TTITLE10=Hush (1968)
TTITLE11=Help (1968)
TTITLE12=Shield (1969)
TTITLE13=Listen, Learn, Read On (1969)
TTITLE14=Kentucky Woman (1969)
TTITLE15=Playground (1968)
TTITLE16=Emmaretta (1969)
TTITLE17=The Bird Has Flown (1969)
EXTD=
EXTT0=
EXTT1=
EXTT2=
EXTT3=
EXTT4=
EXTT5=
EXTT6=
EXTT7=
EXTT8=
EXTT9=
EXTT10=
EXTT11=
EXTT12=
EXTT13=
EXTT14=
EXTT15=
EXTT16=
EXTT17=
PLAYORDER=
